<mxfile host="app.diagrams.net" modified="2024-02-01T14:00:05.430Z" agent="Mozilla/5.0 (Macintosh; Intel Mac OS X 10_15_7) AppleWebKit/537.36 (KHTML, like Gecko) Chrome/121.0.0.0 Safari/537.36" etag="K1brdF3PBdZdUF4nrx53" version="23.1.0" type="github">
  <diagram id="C5RBs43oDa-KdzZeNtuy" name="Page-1">
    <mxGraphModel dx="2074" dy="1057" grid="1" gridSize="10" guides="1" tooltips="1" connect="1" arrows="1" fold="1" page="1" pageScale="1" pageWidth="827" pageHeight="1169" math="0" shadow="0">
      <root>
        <mxCell id="WIyWlLk6GJQsqaUBKTNV-0" />
        <mxCell id="WIyWlLk6GJQsqaUBKTNV-1" parent="WIyWlLk6GJQsqaUBKTNV-0" />
        <mxCell id="bhEaj6wamlyJ2h7lGsD7-3" value="" style="edgeStyle=orthogonalEdgeStyle;rounded=0;orthogonalLoop=1;jettySize=auto;html=1;" edge="1" parent="WIyWlLk6GJQsqaUBKTNV-1" source="bhEaj6wamlyJ2h7lGsD7-1" target="bhEaj6wamlyJ2h7lGsD7-2">
          <mxGeometry relative="1" as="geometry" />
        </mxCell>
        <mxCell id="bhEaj6wamlyJ2h7lGsD7-1" value="查询cash_out_apply表数据" style="rounded=1;whiteSpace=wrap;html=1;fillColor=#d5e8d4;strokeColor=#82b366;" vertex="1" parent="WIyWlLk6GJQsqaUBKTNV-1">
          <mxGeometry x="220" y="190" width="120" height="60" as="geometry" />
        </mxCell>
        <mxCell id="bhEaj6wamlyJ2h7lGsD7-5" value="" style="edgeStyle=orthogonalEdgeStyle;rounded=0;orthogonalLoop=1;jettySize=auto;html=1;" edge="1" parent="WIyWlLk6GJQsqaUBKTNV-1" source="bhEaj6wamlyJ2h7lGsD7-2" target="bhEaj6wamlyJ2h7lGsD7-4">
          <mxGeometry relative="1" as="geometry" />
        </mxCell>
        <mxCell id="bhEaj6wamlyJ2h7lGsD7-2" value="校验风险挑战项是否手机完成" style="rounded=1;whiteSpace=wrap;html=1;fillColor=#d5e8d4;strokeColor=#82b366;" vertex="1" parent="WIyWlLk6GJQsqaUBKTNV-1">
          <mxGeometry x="220" y="330" width="120" height="60" as="geometry" />
        </mxCell>
        <mxCell id="bhEaj6wamlyJ2h7lGsD7-4" value="把提交激活请求订单加入队列" style="rounded=1;whiteSpace=wrap;fillColor=#d5e8d4;strokeColor=#82b366;" vertex="1" parent="WIyWlLk6GJQsqaUBKTNV-1">
          <mxGeometry x="220" y="470" width="120" height="60" as="geometry" />
        </mxCell>
        <mxCell id="bhEaj6wamlyJ2h7lGsD7-6" value="rabbitmq" style="strokeWidth=2;html=1;shape=mxgraph.flowchart.direct_data;whiteSpace=wrap;fillColor=#d5e8d4;strokeColor=#82b366;" vertex="1" parent="WIyWlLk6GJQsqaUBKTNV-1">
          <mxGeometry x="430" y="470" width="100" height="60" as="geometry" />
        </mxCell>
        <mxCell id="bhEaj6wamlyJ2h7lGsD7-7" style="edgeStyle=orthogonalEdgeStyle;rounded=0;orthogonalLoop=1;jettySize=auto;html=1;entryX=0;entryY=0.5;entryDx=0;entryDy=0;entryPerimeter=0;" edge="1" parent="WIyWlLk6GJQsqaUBKTNV-1" source="bhEaj6wamlyJ2h7lGsD7-4" target="bhEaj6wamlyJ2h7lGsD7-6">
          <mxGeometry relative="1" as="geometry" />
        </mxCell>
        <mxCell id="bhEaj6wamlyJ2h7lGsD7-8" value="生产" style="edgeLabel;html=1;align=center;verticalAlign=middle;resizable=0;points=[];" vertex="1" connectable="0" parent="bhEaj6wamlyJ2h7lGsD7-7">
          <mxGeometry y="3" relative="1" as="geometry">
            <mxPoint y="2" as="offset" />
          </mxGeometry>
        </mxCell>
      </root>
    </mxGraphModel>
  </diagram>
</mxfile>
